<?xml version="1.0" encoding="UTF-8" standalone="no"?>
<!DOCTYPE svg PUBLIC "-//W3C//DTD SVG 1.1//EN"
 "http://www.w3.org/Graphics/SVG/1.1/DTD/svg11.dtd">
<!-- Generated by graphviz version 2.50.0 (20211204.2007)
 -->
<!-- Title: g Pages: 1 -->
<svg width="563pt" height="59pt"
 viewBox="0.00 0.00 563.00 59.00" xmlns="http://www.w3.org/2000/svg" xmlns:xlink="http://www.w3.org/1999/xlink">
<g id="graph0" class="graph" transform="scale(1 1) rotate(0) translate(4 55)">
<title>g</title>
<polygon fill="white" stroke="transparent" points="-4,4 -4,-55 559,-55 559,4 -4,4"/>
<!-- 1 -->
<g id="node1" class="node">
<title>1</title>
<ellipse fill="none" stroke="black" cx="43" cy="-33" rx="27" ry="18"/>
<text text-anchor="middle" x="43" y="-29.3" font-family="Times,serif" font-size="14.00">1</text>
<text text-anchor="middle" x="8" y="-3.8" font-family="Times,serif" font-size="14.00">[p]</text>
</g>
<!-- 2 -->
<g id="node2" class="node">
<title>2</title>
<ellipse fill="none" stroke="black" cx="140" cy="-33" rx="27" ry="18"/>
<text text-anchor="middle" x="140" y="-29.3" font-family="Times,serif" font-size="14.00">2</text>
<text text-anchor="middle" x="105" y="-3.8" font-family="Times,serif" font-size="14.00">[p]</text>
</g>
<!-- 1&#45;&gt;2 -->
<g id="edge1" class="edge">
<title>1&#45;&gt;2</title>
<path fill="none" stroke="black" d="M70.21,-33C80.28,-33 91.96,-33 102.81,-33"/>
<polygon fill="black" stroke="black" points="102.87,-36.5 112.87,-33 102.87,-29.5 102.87,-36.5"/>
<text text-anchor="middle" x="91.5" y="-36.8" font-family="Times,serif" font-size="14.00">a</text>
</g>
<!-- 3 -->
<g id="node3" class="node">
<title>3</title>
<ellipse fill="none" stroke="black" cx="237" cy="-33" rx="27" ry="18"/>
<text text-anchor="middle" x="237" y="-29.3" font-family="Times,serif" font-size="14.00">3</text>
<text text-anchor="middle" x="202" y="-3.8" font-family="Times,serif" font-size="14.00">[p]</text>
</g>
<!-- 2&#45;&gt;3 -->
<g id="edge2" class="edge">
<title>2&#45;&gt;3</title>
<path fill="none" stroke="black" d="M167.21,-33C177.28,-33 188.96,-33 199.81,-33"/>
<polygon fill="black" stroke="black" points="199.87,-36.5 209.87,-33 199.87,-29.5 199.87,-36.5"/>
<text text-anchor="middle" x="188.5" y="-36.8" font-family="Times,serif" font-size="14.00">a</text>
</g>
<!-- 4 -->
<g id="node4" class="node">
<title>4</title>
<ellipse fill="none" stroke="black" cx="334" cy="-33" rx="27" ry="18"/>
<text text-anchor="middle" x="334" y="-29.3" font-family="Times,serif" font-size="14.00">4</text>
<text text-anchor="middle" x="299" y="-3.8" font-family="Times,serif" font-size="14.00">[p]</text>
</g>
<!-- 3&#45;&gt;4 -->
<g id="edge3" class="edge">
<title>3&#45;&gt;4</title>
<path fill="none" stroke="black" d="M264.21,-33C274.28,-33 285.96,-33 296.81,-33"/>
<polygon fill="black" stroke="black" points="296.87,-36.5 306.87,-33 296.87,-29.5 296.87,-36.5"/>
<text text-anchor="middle" x="285.5" y="-36.8" font-family="Times,serif" font-size="14.00">a</text>
</g>
<!-- 5 -->
<g id="node5" class="node">
<title>5</title>
<ellipse fill="none" stroke="black" cx="431" cy="-33" rx="27" ry="18"/>
<text text-anchor="middle" x="431" y="-29.3" font-family="Times,serif" font-size="14.00">5</text>
</g>
<!-- 4&#45;&gt;5 -->
<g id="edge4" class="edge">
<title>4&#45;&gt;5</title>
<path fill="none" stroke="black" d="M361.21,-33C371.28,-33 382.96,-33 393.81,-33"/>
<polygon fill="black" stroke="black" points="393.87,-36.5 403.87,-33 393.87,-29.5 393.87,-36.5"/>
<text text-anchor="middle" x="382.5" y="-36.8" font-family="Times,serif" font-size="14.00">a</text>
</g>
<!-- 6 -->
<g id="node6" class="node">
<title>6</title>
<ellipse fill="none" stroke="black" cx="528" cy="-33" rx="27" ry="18"/>
<text text-anchor="middle" x="528" y="-29.3" font-family="Times,serif" font-size="14.00">6</text>
</g>
<!-- 5&#45;&gt;6 -->
<g id="edge5" class="edge">
<title>5&#45;&gt;6</title>
<path fill="none" stroke="black" d="M458.21,-33C468.28,-33 479.96,-33 490.81,-33"/>
<polygon fill="black" stroke="black" points="490.87,-36.5 500.87,-33 490.87,-29.5 490.87,-36.5"/>
<text text-anchor="middle" x="479.5" y="-36.8" font-family="Times,serif" font-size="14.00">a</text>
</g>
</g>
</svg>
