<?xml version="1.0" encoding="UTF-8" standalone="no"?>
<!DOCTYPE svg PUBLIC "-//W3C//DTD SVG 1.1//EN"
 "http://www.w3.org/Graphics/SVG/1.1/DTD/svg11.dtd">
<!-- Generated by graphviz version 2.50.0 (20211204.2007)
 -->
<!-- Title: g Pages: 1 -->
<svg width="180pt" height="77pt"
 viewBox="0.00 0.00 180.00 77.00" xmlns="http://www.w3.org/2000/svg" xmlns:xlink="http://www.w3.org/1999/xlink">
<g id="graph0" class="graph" transform="scale(1 1) rotate(0) translate(4 73)">
<title>g</title>
<polygon fill="white" stroke="transparent" points="-4,4 -4,-73 176,-73 176,4 -4,4"/>
<!-- 1 -->
<g id="node1" class="node">
<title>1</title>
<ellipse fill="none" stroke="black" cx="145" cy="-33" rx="27" ry="18"/>
<text text-anchor="middle" x="145" y="-29.3" font-family="Times,serif" font-size="14.00">1</text>
</g>
<!-- 1&#45;&gt;1 -->
<g id="edge1" class="edge">
<title>1&#45;&gt;1</title>
<path fill="none" stroke="black" d="M129.77,-48.17C125.16,-58.66 130.23,-69 145,-69 154.92,-69 160.47,-64.33 161.64,-58.09"/>
<polygon fill="black" stroke="black" points="165.1,-57.57 160.23,-48.17 158.17,-58.56 165.1,-57.57"/>
</g>
<!-- 2 -->
<g id="node2" class="node">
<title>2</title>
<ellipse fill="none" stroke="black" cx="55" cy="-33" rx="27" ry="18"/>
<text text-anchor="middle" x="55" y="-29.3" font-family="Times,serif" font-size="14.00">2</text>
<text text-anchor="middle" x="14" y="-3.8" font-family="Times,serif" font-size="14.00">(¬ p)</text>
</g>
<!-- 2&#45;&gt;1 -->
<g id="edge3" class="edge">
<title>2&#45;&gt;1</title>
<path fill="none" stroke="black" d="M82.4,-33C90.39,-33 99.31,-33 107.82,-33"/>
<polygon fill="black" stroke="black" points="107.92,-36.5 117.92,-33 107.92,-29.5 107.92,-36.5"/>
</g>
<!-- 2&#45;&gt;2 -->
<g id="edge2" class="edge">
<title>2&#45;&gt;2</title>
<path fill="none" stroke="black" d="M39.77,-48.17C35.16,-58.66 40.23,-69 55,-69 64.92,-69 70.47,-64.33 71.64,-58.09"/>
<polygon fill="black" stroke="black" points="75.1,-57.57 70.23,-48.17 68.17,-58.56 75.1,-57.57"/>
</g>
</g>
</svg>
