<?xml version="1.0" encoding="UTF-8" standalone="no"?>
<!DOCTYPE svg PUBLIC "-//W3C//DTD SVG 1.1//EN"
 "http://www.w3.org/Graphics/SVG/1.1/DTD/svg11.dtd">
<!-- Generated by graphviz version 2.50.0 (20211204.2007)
 -->
<!-- Title: g Pages: 1 -->
<svg width="242pt" height="111pt"
 viewBox="0.00 0.00 242.00 110.98" xmlns="http://www.w3.org/2000/svg" xmlns:xlink="http://www.w3.org/1999/xlink">
<g id="graph0" class="graph" transform="scale(1 1) rotate(0) translate(4 106.98)">
<title>g</title>
<polygon fill="white" stroke="transparent" points="-4,4 -4,-106.98 238,-106.98 238,4 -4,4"/>
<!-- 1 -->
<g id="node1" class="node">
<title>1</title>
<ellipse fill="none" stroke="black" cx="27" cy="-30.98" rx="27" ry="18"/>
<text text-anchor="middle" x="27" y="-27.28" font-family="Times,serif" font-size="14.00">1</text>
</g>
<!-- 2 -->
<g id="node2" class="node">
<title>2</title>
<ellipse fill="none" stroke="black" cx="117" cy="-84.98" rx="27" ry="18"/>
<text text-anchor="middle" x="117" y="-81.28" font-family="Times,serif" font-size="14.00">2</text>
</g>
<!-- 1&#45;&gt;2 -->
<g id="edge1" class="edge">
<title>1&#45;&gt;2</title>
<path fill="none" stroke="black" d="M47.53,-42.96C59.38,-50.24 74.7,-59.64 87.84,-67.7"/>
<polygon fill="black" stroke="black" points="86.17,-70.78 96.52,-73.03 89.83,-64.82 86.17,-70.78"/>
</g>
<!-- 4 -->
<g id="node4" class="node">
<title>4</title>
<ellipse fill="none" stroke="black" cx="117" cy="-30.98" rx="27" ry="18"/>
<text text-anchor="middle" x="117" y="-27.28" font-family="Times,serif" font-size="14.00">4</text>
</g>
<!-- 1&#45;&gt;4 -->
<g id="edge4" class="edge">
<title>1&#45;&gt;4</title>
<path fill="none" stroke="black" d="M54.4,-30.98C62.39,-30.98 71.31,-30.98 79.82,-30.98"/>
<polygon fill="black" stroke="black" points="79.92,-34.48 89.92,-30.98 79.92,-27.48 79.92,-34.48"/>
</g>
<!-- 3 -->
<g id="node3" class="node">
<title>3</title>
<ellipse fill="none" stroke="black" cx="207" cy="-34.98" rx="27" ry="18"/>
<text text-anchor="middle" x="207" y="-31.28" font-family="Times,serif" font-size="14.00">3</text>
</g>
<!-- 2&#45;&gt;3 -->
<g id="edge2" class="edge">
<title>2&#45;&gt;3</title>
<path fill="none" stroke="black" d="M137.97,-73.63C149.48,-67.1 164.15,-58.76 176.92,-51.51"/>
<polygon fill="black" stroke="black" points="178.84,-54.44 185.81,-46.45 175.38,-48.35 178.84,-54.44"/>
</g>
<!-- 3&#45;&gt;1 -->
<g id="edge3" class="edge">
<title>3&#45;&gt;1</title>
<path fill="none" stroke="black" d="M187.06,-22.62C175.22,-15.64 159.34,-7.6 144,-3.98 120.64,1.53 113.5,0.91 90,-3.98 78.94,-6.28 67.43,-10.67 57.38,-15.25"/>
<polygon fill="black" stroke="black" points="55.74,-12.15 48.24,-19.64 58.77,-18.46 55.74,-12.15"/>
</g>
</g>
</svg>
