<?xml version="1.0" encoding="UTF-8" standalone="no"?>
<!DOCTYPE svg PUBLIC "-//W3C//DTD SVG 1.1//EN"
 "http://www.w3.org/Graphics/SVG/1.1/DTD/svg11.dtd">
<!-- Generated by graphviz version 2.50.0 (20211204.2007)
 -->
<!-- Title: g Pages: 1 -->
<svg width="246pt" height="441pt"
 viewBox="0.00 0.00 246.38 441.00" xmlns="http://www.w3.org/2000/svg" xmlns:xlink="http://www.w3.org/1999/xlink">
<g id="graph0" class="graph" transform="scale(1 1) rotate(0) translate(4 437)">
<title>g</title>
<polygon fill="white" stroke="transparent" points="-4,4 -4,-437 242.38,-437 242.38,4 -4,4"/>
<!-- a -->
<g id="node1" class="node">
<title>a</title>
<ellipse fill="none" stroke="black" cx="122.69" cy="-400" rx="115.88" ry="18"/>
<text text-anchor="middle" x="122.69" y="-396.3" font-family="Times,serif" font-size="14.00">* ◇ (p ∧ ¬ q), ◇ ¬ p, ¬ ◇ ¬ q</text>
<text text-anchor="middle" x="3.5" y="-421.8" font-family="Times,serif" font-size="14.00">1</text>
</g>
<!-- b -->
<g id="node2" class="node">
<title>b</title>
<ellipse fill="none" stroke="black" cx="122.69" cy="-328" rx="105.08" ry="18"/>
<text text-anchor="middle" x="122.69" y="-324.3" font-family="Times,serif" font-size="14.00">◇ ¬ q * ◇ (p ∧ ¬ q), ◇ ¬ p</text>
<text text-anchor="middle" x="13.9" y="-349.8" font-family="Times,serif" font-size="14.00">1</text>
</g>
<!-- a&#45;&#45;b -->
<g id="edge1" class="edge">
<title>a&#45;&#45;b</title>
<path fill="none" stroke="black" d="M122.69,-381.7C122.69,-370.85 122.69,-356.92 122.69,-346.1"/>
</g>
<!-- c -->
<g id="node3" class="node">
<title>c</title>
<ellipse fill="none" stroke="black" cx="122.69" cy="-256" rx="76.09" ry="18"/>
<text text-anchor="middle" x="122.69" y="-252.3" font-family="Times,serif" font-size="14.00">¬ q * p ∧ ¬ q, ¬ p</text>
<text text-anchor="middle" x="43.15" y="-277.8" font-family="Times,serif" font-size="14.00">2</text>
</g>
<!-- b&#45;&#45;c -->
<g id="edge2" class="edge">
<title>b&#45;&#45;c</title>
<path fill="none" stroke="black" stroke-dasharray="5,2" d="M122.69,-309.7C122.69,-298.85 122.69,-284.92 122.69,-274.1"/>
</g>
<!-- d -->
<g id="node4" class="node">
<title>d</title>
<ellipse fill="none" stroke="black" cx="122.69" cy="-184" rx="60.39" ry="18"/>
<text text-anchor="middle" x="122.69" y="-180.3" font-family="Times,serif" font-size="14.00">p * p ∧ ¬ q, q</text>
<text text-anchor="middle" x="58.75" y="-205.8" font-family="Times,serif" font-size="14.00">2</text>
</g>
<!-- c&#45;&#45;d -->
<g id="edge3" class="edge">
<title>c&#45;&#45;d</title>
<path fill="none" stroke="black" d="M122.69,-237.7C122.69,-226.85 122.69,-212.92 122.69,-202.1"/>
</g>
<!-- el -->
<g id="node5" class="node">
<title>el</title>
<polygon fill="none" stroke="black" points="46.19,-83.5 46.19,-129.5 105.19,-129.5 105.19,-83.5 46.19,-83.5"/>
<text text-anchor="middle" x="75.69" y="-114.3" font-family="Times,serif" font-size="14.00">p * p, q</text>
<polyline fill="none" stroke="black" points="46.19,-106.5 105.19,-106.5 "/>
<text text-anchor="middle" x="75.69" y="-91.3" font-family="Times,serif" font-size="14.00">closes.</text>
<text text-anchor="middle" x="42.69" y="-133.8" font-family="Times,serif" font-size="14.00">2</text>
</g>
<!-- d&#45;&#45;el -->
<g id="edge4" class="edge">
<title>d&#45;&#45;el</title>
<path fill="none" stroke="black" d="M112.26,-166.24C105.55,-155.47 96.76,-141.35 89.48,-129.66"/>
</g>
<!-- er -->
<g id="node6" class="node">
<title>er</title>
<ellipse fill="none" stroke="black" cx="169.69" cy="-106.5" rx="46.29" ry="18"/>
<text text-anchor="middle" x="169.69" y="-102.8" font-family="Times,serif" font-size="14.00">p * ¬ q, q</text>
<text text-anchor="middle" x="120.04" y="-128.3" font-family="Times,serif" font-size="14.00">2</text>
</g>
<!-- d&#45;&#45;er -->
<g id="edge5" class="edge">
<title>d&#45;&#45;er</title>
<path fill="none" stroke="black" d="M133.12,-166.24C140.91,-153.73 151.51,-136.71 159.29,-124.21"/>
</g>
<!-- f -->
<g id="node7" class="node">
<title>f</title>
<polygon fill="none" stroke="black" points="140.19,-0.5 140.19,-46.5 199.19,-46.5 199.19,-0.5 140.19,-0.5"/>
<text text-anchor="middle" x="169.69" y="-31.3" font-family="Times,serif" font-size="14.00">p, q * q</text>
<polyline fill="none" stroke="black" points="140.19,-23.5 199.19,-23.5 "/>
<text text-anchor="middle" x="169.69" y="-8.3" font-family="Times,serif" font-size="14.00">closes.</text>
<text text-anchor="middle" x="136.69" y="-50.8" font-family="Times,serif" font-size="14.00">2</text>
</g>
<!-- er&#45;&#45;f -->
<g id="edge6" class="edge">
<title>er&#45;&#45;f</title>
<path fill="none" stroke="black" d="M169.69,-88.32C169.69,-76.15 169.69,-59.73 169.69,-46.59"/>
</g>
</g>
</svg>
