<?xml version="1.0" encoding="UTF-8" standalone="no"?>
<!DOCTYPE svg PUBLIC "-//W3C//DTD SVG 1.1//EN"
 "http://www.w3.org/Graphics/SVG/1.1/DTD/svg11.dtd">
<!-- Generated by graphviz version 2.50.0 (20211204.2007)
 -->
<!-- Title: g Pages: 1 -->
<svg width="462pt" height="524pt"
 viewBox="0.00 0.00 462.29 524.00" xmlns="http://www.w3.org/2000/svg" xmlns:xlink="http://www.w3.org/1999/xlink">
<g id="graph0" class="graph" transform="scale(1 1) rotate(0) translate(4 520)">
<title>g</title>
<polygon fill="white" stroke="transparent" points="-4,4 -4,-520 458.29,-520 458.29,4 -4,4"/>
<!-- a -->
<g id="node1" class="node">
<title>a</title>
<ellipse fill="none" stroke="black" cx="237.29" cy="-483" rx="134.58" ry="18"/>
<text text-anchor="middle" x="237.29" y="-479.3" font-family="Times,serif" font-size="14.00">* (¬ ◇ ¬ p ∧ ◇ ¬ q), ¬ ◇ (p ∧ ¬ q)</text>
<text text-anchor="middle" x="99.25" y="-504.8" font-family="Times,serif" font-size="14.00">1</text>
</g>
<!-- b -->
<g id="node2" class="node">
<title>b</title>
<ellipse fill="none" stroke="black" cx="125.29" cy="-411" rx="118.08" ry="18"/>
<text text-anchor="middle" x="125.29" y="-407.3" font-family="Times,serif" font-size="14.00">◇ (p ∧ ¬ q) * ¬ ◇ ¬ p ∧ ◇ ¬ q</text>
<text text-anchor="middle" x="3.5" y="-432.8" font-family="Times,serif" font-size="14.00">1</text>
</g>
<!-- a&#45;&#45;b -->
<g id="edge1" class="edge">
<title>a&#45;&#45;b</title>
<path fill="none" stroke="black" d="M210.46,-465.23C192.73,-454.15 169.58,-439.68 151.9,-428.63"/>
</g>
<!-- la -->
<g id="node3" class="node">
<title>la</title>
<ellipse fill="none" stroke="black" cx="350.29" cy="-411" rx="88.28" ry="18"/>
<text text-anchor="middle" x="350.29" y="-407.3" font-family="Times,serif" font-size="14.00">◇ (p ∧ ¬ q) * ¬ ◇ ¬ p</text>
<text text-anchor="middle" x="258.4" y="-432.8" font-family="Times,serif" font-size="14.00">1</text>
</g>
<!-- a&#45;&#45;la -->
<g id="edge2" class="edge">
<title>a&#45;&#45;la</title>
<path fill="none" stroke="black" d="M264.36,-465.23C282.38,-454.07 305.94,-439.47 323.83,-428.39"/>
</g>
<!-- ra -->
<g id="node9" class="node">
<title>ra</title>
<ellipse fill="none" stroke="black" cx="125.29" cy="-339" rx="80.69" ry="18"/>
<text text-anchor="middle" x="125.29" y="-335.3" font-family="Times,serif" font-size="14.00">◇ (p ∧ ¬ q) * ◇ ¬ q</text>
<text text-anchor="middle" x="41.2" y="-360.8" font-family="Times,serif" font-size="14.00">1</text>
</g>
<!-- b&#45;&#45;ra -->
<g id="edge8" class="edge">
<title>b&#45;&#45;ra</title>
<path fill="none" stroke="black" d="M125.29,-392.7C125.29,-381.85 125.29,-367.92 125.29,-357.1"/>
</g>
<!-- lb -->
<g id="node4" class="node">
<title>lb</title>
<ellipse fill="none" stroke="black" cx="350.29" cy="-339" rx="83.39" ry="18"/>
<text text-anchor="middle" x="350.29" y="-335.3" font-family="Times,serif" font-size="14.00">◇ (p ∧ ¬ q), ◇ ¬ p *</text>
<text text-anchor="middle" x="263.6" y="-360.8" font-family="Times,serif" font-size="14.00">1</text>
</g>
<!-- la&#45;&#45;lb -->
<g id="edge3" class="edge">
<title>la&#45;&#45;lb</title>
<path fill="none" stroke="black" d="M350.29,-392.7C350.29,-381.85 350.29,-367.92 350.29,-357.1"/>
</g>
<!-- lla -->
<g id="node5" class="node">
<title>lla</title>
<ellipse fill="none" stroke="black" cx="298.29" cy="-261.5" rx="44.39" ry="18"/>
<text text-anchor="middle" x="298.29" y="-257.8" font-family="Times,serif" font-size="14.00">p ∧ ¬ q *</text>
<text text-anchor="middle" x="250.59" y="-283.3" font-family="Times,serif" font-size="14.00">2</text>
</g>
<!-- lb&#45;&#45;lla -->
<g id="edge4" class="edge">
<title>lb&#45;&#45;lla</title>
<path fill="none" stroke="black" stroke-dasharray="5,2" d="M338.49,-320.87C329.86,-308.34 318.22,-291.44 309.69,-279.05"/>
</g>
<!-- lra -->
<g id="node8" class="node">
<title>lra</title>
<polygon fill="none" stroke="black" points="360.29,-238.5 360.29,-284.5 454.29,-284.5 454.29,-238.5 360.29,-238.5"/>
<text text-anchor="middle" x="407.29" y="-269.3" font-family="Times,serif" font-size="14.00">¬ p *</text>
<polyline fill="none" stroke="black" points="360.29,-261.5 454.29,-261.5 "/>
<text text-anchor="middle" x="407.29" y="-246.3" font-family="Times,serif" font-size="14.00">does not close</text>
<text text-anchor="middle" x="356.79" y="-288.8" font-family="Times,serif" font-size="14.00">3</text>
</g>
<!-- lb&#45;&#45;lra -->
<g id="edge7" class="edge">
<title>lb&#45;&#45;lra</title>
<path fill="none" stroke="black" stroke-dasharray="5,2" d="M363.22,-320.87C371.3,-310.17 381.79,-296.27 390.51,-284.73"/>
</g>
<!-- llb -->
<g id="node6" class="node">
<title>llb</title>
<ellipse fill="none" stroke="black" cx="298.29" cy="-184" rx="38.99" ry="18"/>
<text text-anchor="middle" x="298.29" y="-180.3" font-family="Times,serif" font-size="14.00">p, ¬ q *</text>
<text text-anchor="middle" x="255.79" y="-205.8" font-family="Times,serif" font-size="14.00">2</text>
</g>
<!-- lla&#45;&#45;llb -->
<g id="edge5" class="edge">
<title>lla&#45;&#45;llb</title>
<path fill="none" stroke="black" d="M298.29,-243.37C298.29,-231.01 298.29,-214.4 298.29,-202.06"/>
</g>
<!-- llc -->
<g id="node7" class="node">
<title>llc</title>
<polygon fill="none" stroke="black" points="251.29,-83.5 251.29,-129.5 345.29,-129.5 345.29,-83.5 251.29,-83.5"/>
<text text-anchor="middle" x="298.29" y="-114.3" font-family="Times,serif" font-size="14.00">p * q</text>
<polyline fill="none" stroke="black" points="251.29,-106.5 345.29,-106.5 "/>
<text text-anchor="middle" x="298.29" y="-91.3" font-family="Times,serif" font-size="14.00">does not close</text>
<text text-anchor="middle" x="247.79" y="-133.8" font-family="Times,serif" font-size="14.00">2</text>
</g>
<!-- llb&#45;&#45;llc -->
<g id="edge6" class="edge">
<title>llb&#45;&#45;llc</title>
<path fill="none" stroke="black" d="M298.29,-165.87C298.29,-155.17 298.29,-141.27 298.29,-129.73"/>
</g>
<!-- rb -->
<g id="node10" class="node">
<title>rb</title>
<ellipse fill="none" stroke="black" cx="125.29" cy="-261.5" rx="59.29" ry="18"/>
<text text-anchor="middle" x="125.29" y="-257.8" font-family="Times,serif" font-size="14.00">p ∧ ¬ q * ¬ q</text>
<text text-anchor="middle" x="62.64" y="-283.3" font-family="Times,serif" font-size="14.00">4</text>
</g>
<!-- ra&#45;&#45;rb -->
<g id="edge9" class="edge">
<title>ra&#45;&#45;rb</title>
<path fill="none" stroke="black" stroke-dasharray="5,2" d="M125.29,-320.87C125.29,-308.51 125.29,-291.9 125.29,-279.56"/>
</g>
<!-- rc -->
<g id="node11" class="node">
<title>rc</title>
<ellipse fill="none" stroke="black" cx="125.29" cy="-184" rx="53.89" ry="18"/>
<text text-anchor="middle" x="125.29" y="-180.3" font-family="Times,serif" font-size="14.00">p ∧ ¬ q, q *</text>
<text text-anchor="middle" x="67.84" y="-205.8" font-family="Times,serif" font-size="14.00">4</text>
</g>
<!-- rb&#45;&#45;rc -->
<g id="edge10" class="edge">
<title>rb&#45;&#45;rc</title>
<path fill="none" stroke="black" d="M125.29,-243.37C125.29,-231.01 125.29,-214.4 125.29,-202.06"/>
</g>
<!-- rd -->
<g id="node12" class="node">
<title>rd</title>
<ellipse fill="none" stroke="black" cx="125.29" cy="-106.5" rx="48.19" ry="18"/>
<text text-anchor="middle" x="125.29" y="-102.8" font-family="Times,serif" font-size="14.00">p, ¬ q, q *</text>
<text text-anchor="middle" x="73.69" y="-128.3" font-family="Times,serif" font-size="14.00">4</text>
</g>
<!-- rc&#45;&#45;rd -->
<g id="edge11" class="edge">
<title>rc&#45;&#45;rd</title>
<path fill="none" stroke="black" d="M125.29,-165.87C125.29,-153.51 125.29,-136.9 125.29,-124.56"/>
</g>
<!-- re -->
<g id="node13" class="node">
<title>re</title>
<polygon fill="none" stroke="black" points="95.79,-0.5 95.79,-46.5 154.79,-46.5 154.79,-0.5 95.79,-0.5"/>
<text text-anchor="middle" x="125.29" y="-31.3" font-family="Times,serif" font-size="14.00">p, q * q</text>
<polyline fill="none" stroke="black" points="95.79,-23.5 154.79,-23.5 "/>
<text text-anchor="middle" x="125.29" y="-8.3" font-family="Times,serif" font-size="14.00">closes</text>
<text text-anchor="middle" x="92.29" y="-50.8" font-family="Times,serif" font-size="14.00">4</text>
</g>
<!-- rd&#45;&#45;re -->
<g id="edge12" class="edge">
<title>rd&#45;&#45;re</title>
<path fill="none" stroke="black" d="M125.29,-88.32C125.29,-76.15 125.29,-59.73 125.29,-46.59"/>
</g>
</g>
</svg>
