<?xml version="1.0" encoding="UTF-8" standalone="no"?>
<!DOCTYPE svg PUBLIC "-//W3C//DTD SVG 1.1//EN"
 "http://www.w3.org/Graphics/SVG/1.1/DTD/svg11.dtd">
<!-- Generated by graphviz version 2.50.0 (20211204.2007)
 -->
<!-- Title: g Pages: 1 -->
<svg width="152pt" height="100pt"
 viewBox="0.00 0.00 152.00 99.50" xmlns="http://www.w3.org/2000/svg" xmlns:xlink="http://www.w3.org/1999/xlink">
<g id="graph0" class="graph" transform="scale(1 1) rotate(0) translate(4 95.5)">
<title>g</title>
<polygon fill="white" stroke="transparent" points="-4,4 -4,-95.5 148,-95.5 148,4 -4,4"/>
<!-- 1 -->
<g id="node1" class="node">
<title>1</title>
<ellipse fill="none" stroke="black" cx="27" cy="-45" rx="27" ry="18"/>
<text text-anchor="middle" x="27" y="-41.3" font-family="Times,serif" font-size="14.00">1</text>
</g>
<!-- 2 -->
<g id="node2" class="node">
<title>2</title>
<path fill="none" stroke="black" d="M102,-55C102,-55 132,-55 132,-55 138,-55 144,-61 144,-67 144,-67 144,-79 144,-79 144,-85 138,-91 132,-91 132,-91 102,-91 102,-91 96,-91 90,-85 90,-79 90,-79 90,-67 90,-67 90,-61 96,-55 102,-55"/>
<text text-anchor="middle" x="103.5" y="-69.3" font-family="Times,serif" font-size="14.00">2</text>
<polyline fill="none" stroke="black" points="117,-55 117,-91 "/>
<text text-anchor="middle" x="130.5" y="-69.3" font-family="Times,serif" font-size="14.00">p</text>
</g>
<!-- 1&#45;&gt;2 -->
<g id="edge1" class="edge">
<title>1&#45;&gt;2</title>
<path fill="none" stroke="black" d="M51.58,-52.5C60.35,-55.29 70.5,-58.52 80.12,-61.58"/>
<polygon fill="black" stroke="black" points="79.28,-64.99 89.87,-64.69 81.4,-58.32 79.28,-64.99"/>
</g>
<!-- 3 -->
<g id="node3" class="node">
<title>3</title>
<ellipse fill="none" stroke="black" cx="117" cy="-18" rx="27" ry="18"/>
<text text-anchor="middle" x="117" y="-14.3" font-family="Times,serif" font-size="14.00">3</text>
</g>
<!-- 1&#45;&gt;3 -->
<g id="edge2" class="edge">
<title>1&#45;&gt;3</title>
<path fill="none" stroke="black" d="M52.05,-37.62C61.44,-34.74 72.36,-31.39 82.5,-28.28"/>
<polygon fill="black" stroke="black" points="83.75,-31.55 92.29,-25.28 81.7,-24.86 83.75,-31.55"/>
</g>
</g>
</svg>
