<?xml version="1.0" encoding="UTF-8" standalone="no"?>
<!DOCTYPE svg PUBLIC "-//W3C//DTD SVG 1.1//EN"
 "http://www.w3.org/Graphics/SVG/1.1/DTD/svg11.dtd">
<!-- Generated by graphviz version 2.50.0 (20211204.2007)
 -->
<!-- Title: g Pages: 1 -->
<svg width="141pt" height="188pt"
 viewBox="0.00 0.00 141.00 188.00" xmlns="http://www.w3.org/2000/svg" xmlns:xlink="http://www.w3.org/1999/xlink">
<g id="graph0" class="graph" transform="scale(1 1) rotate(0) translate(4 184)">
<title>g</title>
<polygon fill="white" stroke="transparent" points="-4,4 -4,-184 137,-184 137,4 -4,4"/>
<!-- a -->
<g id="node1" class="node">
<title>a</title>
<ellipse fill="none" stroke="black" cx="70" cy="-18" rx="27" ry="18"/>
<text text-anchor="middle" x="70" y="-14.3" font-family="Times,serif" font-size="14.00">a</text>
</g>
<!-- b -->
<g id="node2" class="node">
<title>b</title>
<ellipse fill="none" stroke="black" cx="34" cy="-90" rx="27" ry="18"/>
<text text-anchor="middle" x="34" y="-86.3" font-family="Times,serif" font-size="14.00">b</text>
</g>
<!-- a&#45;&gt;b -->
<g id="edge1" class="edge">
<title>a&#45;&gt;b</title>
<path fill="none" stroke="black" d="M61.65,-35.24C57.29,-43.72 51.85,-54.29 46.96,-63.8"/>
<polygon fill="black" stroke="black" points="43.77,-62.36 42.3,-72.85 49.99,-65.56 43.77,-62.36"/>
</g>
<!-- c -->
<g id="node3" class="node">
<title>c</title>
<ellipse fill="none" stroke="black" cx="106" cy="-90" rx="27" ry="18"/>
<text text-anchor="middle" x="106" y="-86.3" font-family="Times,serif" font-size="14.00">c</text>
<text text-anchor="middle" x="75.5" y="-60.8" font-family="Times,serif" font-size="14.00">p</text>
</g>
<!-- a&#45;&gt;c -->
<g id="edge2" class="edge">
<title>a&#45;&gt;c</title>
<path fill="none" stroke="black" d="M78.35,-35.24C82.71,-43.72 88.15,-54.29 93.04,-63.8"/>
<polygon fill="black" stroke="black" points="90.01,-65.56 97.7,-72.85 96.23,-62.36 90.01,-65.56"/>
</g>
<!-- d -->
<g id="node4" class="node">
<title>d</title>
<ellipse fill="none" stroke="black" cx="34" cy="-162" rx="27" ry="18"/>
<text text-anchor="middle" x="34" y="-158.3" font-family="Times,serif" font-size="14.00">d</text>
<text text-anchor="middle" x="3.5" y="-132.8" font-family="Times,serif" font-size="14.00">q</text>
</g>
<!-- b&#45;&gt;d -->
<g id="edge4" class="edge">
<title>b&#45;&gt;d</title>
<path fill="none" stroke="black" d="M34,-108.3C34,-116.02 34,-125.29 34,-133.89"/>
<polygon fill="black" stroke="black" points="30.5,-133.9 34,-143.9 37.5,-133.9 30.5,-133.9"/>
</g>
<!-- c&#45;&gt;d -->
<g id="edge3" class="edge">
<title>c&#45;&gt;d</title>
<path fill="none" stroke="black" d="M91.43,-105.17C81.25,-115.06 67.48,-128.45 55.97,-139.64"/>
<polygon fill="black" stroke="black" points="53.53,-137.13 48.8,-146.62 58.41,-142.15 53.53,-137.13"/>
</g>
<!-- e -->
<g id="node5" class="node">
<title>e</title>
<ellipse fill="none" stroke="black" cx="106" cy="-162" rx="27" ry="18"/>
<text text-anchor="middle" x="106" y="-158.3" font-family="Times,serif" font-size="14.00">e</text>
<text text-anchor="middle" x="75.5" y="-132.8" font-family="Times,serif" font-size="14.00">q</text>
</g>
<!-- c&#45;&gt;e -->
<g id="edge5" class="edge">
<title>c&#45;&gt;e</title>
<path fill="none" stroke="black" d="M106,-108.3C106,-116.02 106,-125.29 106,-133.89"/>
<polygon fill="black" stroke="black" points="102.5,-133.9 106,-143.9 109.5,-133.9 102.5,-133.9"/>
</g>
</g>
</svg>
