<?xml version="1.0" encoding="UTF-8" standalone="no"?>
<!DOCTYPE svg PUBLIC "-//W3C//DTD SVG 1.1//EN"
 "http://www.w3.org/Graphics/SVG/1.1/DTD/svg11.dtd">
<!-- Generated by graphviz version 2.50.0 (20211204.2007)
 -->
<!-- Title: x Pages: 1 -->
<svg width="358pt" height="332pt"
 viewBox="0.00 0.00 357.99 332.00" xmlns="http://www.w3.org/2000/svg" xmlns:xlink="http://www.w3.org/1999/xlink">
<g id="graph0" class="graph" transform="scale(1 1) rotate(0) translate(4 328)">
<title>x</title>
<polygon fill="white" stroke="transparent" points="-4,4 -4,-328 353.99,-328 353.99,4 -4,4"/>
<!-- top -->
<g id="node1" class="node">
<title>top</title>
<ellipse fill="none" stroke="black" cx="114.9" cy="-306" rx="77.19" ry="18"/>
<text text-anchor="middle" x="114.9" y="-302.3" font-family="Times,serif" font-size="14.00">[V] ◇ p ∨ □ ◇ p, 2</text>
</g>
<!-- l11 -->
<g id="node2" class="node">
<title>l11</title>
<ellipse fill="none" stroke="black" cx="55.9" cy="-234" rx="46.59" ry="18"/>
<text text-anchor="middle" x="55.9" y="-230.3" font-family="Times,serif" font-size="14.00">[V] ◇ p, 2</text>
</g>
<!-- top&#45;&gt;l11 -->
<g id="edge1" class="edge">
<title>top&#45;&gt;l11</title>
<path fill="none" stroke="black" d="M100.61,-288.05C93.26,-279.33 84.17,-268.54 76.11,-258.98"/>
<polygon fill="black" stroke="black" points="78.76,-256.7 69.64,-251.31 73.41,-261.21 78.76,-256.7"/>
</g>
<!-- l12 -->
<g id="node3" class="node">
<title>l12</title>
<ellipse fill="none" stroke="black" cx="173.9" cy="-234" rx="53.09" ry="18"/>
<text text-anchor="middle" x="173.9" y="-230.3" font-family="Times,serif" font-size="14.00">[F] □ ◇ p, 2</text>
</g>
<!-- top&#45;&gt;l12 -->
<g id="edge2" class="edge">
<title>top&#45;&gt;l12</title>
<path fill="none" stroke="black" d="M129.18,-288.05C136.35,-279.54 145.18,-269.07 153.09,-259.68"/>
<polygon fill="black" stroke="black" points="155.98,-261.69 159.74,-251.79 150.62,-257.18 155.98,-261.69"/>
</g>
<!-- l21 -->
<g id="node4" class="node">
<title>l21</title>
<ellipse fill="none" stroke="black" cx="55.9" cy="-162" rx="27" ry="18"/>
<text text-anchor="middle" x="55.9" y="-158.3" font-family="Times,serif" font-size="14.00">p 3</text>
</g>
<!-- l11&#45;&gt;l21 -->
<g id="edge3" class="edge">
<title>l11&#45;&gt;l21</title>
<path fill="none" stroke="black" d="M55.9,-215.7C55.9,-207.98 55.9,-198.71 55.9,-190.11"/>
<polygon fill="black" stroke="black" points="59.4,-190.1 55.9,-180.1 52.4,-190.1 59.4,-190.1"/>
</g>
<!-- l22 -->
<g id="node5" class="node">
<title>l22</title>
<ellipse fill="none" stroke="black" cx="173.9" cy="-162" rx="46.59" ry="18"/>
<text text-anchor="middle" x="173.9" y="-158.3" font-family="Times,serif" font-size="14.00">[V] ◇ p, 3</text>
</g>
<!-- l12&#45;&gt;l22 -->
<g id="edge4" class="edge">
<title>l12&#45;&gt;l22</title>
<path fill="none" stroke="black" d="M173.9,-215.7C173.9,-207.98 173.9,-198.71 173.9,-190.11"/>
<polygon fill="black" stroke="black" points="177.4,-190.1 173.9,-180.1 170.4,-190.1 177.4,-190.1"/>
</g>
<!-- l31 -->
<g id="node6" class="node">
<title>l31</title>
<ellipse fill="none" stroke="black" cx="55.9" cy="-90" rx="55.79" ry="18"/>
<text text-anchor="middle" x="55.9" y="-86.3" font-family="Times,serif" font-size="14.00">Verifier wins</text>
</g>
<!-- l21&#45;&gt;l31 -->
<g id="edge5" class="edge">
<title>l21&#45;&gt;l31</title>
<path fill="none" stroke="black" d="M55.9,-143.7C55.9,-135.98 55.9,-126.71 55.9,-118.11"/>
<polygon fill="black" stroke="black" points="59.4,-118.1 55.9,-108.1 52.4,-118.1 59.4,-118.1"/>
</g>
<!-- l32 -->
<g id="node7" class="node">
<title>l32</title>
<ellipse fill="none" stroke="black" cx="165.9" cy="-90" rx="27" ry="18"/>
<text text-anchor="middle" x="165.9" y="-86.3" font-family="Times,serif" font-size="14.00">p, 2</text>
</g>
<!-- l22&#45;&gt;l32 -->
<g id="edge6" class="edge">
<title>l22&#45;&gt;l32</title>
<path fill="none" stroke="black" d="M171.92,-143.7C171.04,-135.98 169.98,-126.71 168.99,-118.11"/>
<polygon fill="black" stroke="black" points="172.46,-117.64 167.85,-108.1 165.51,-118.44 172.46,-117.64"/>
</g>
<!-- l33 -->
<g id="node8" class="node">
<title>l33</title>
<ellipse fill="none" stroke="black" cx="271.9" cy="-90" rx="27" ry="18"/>
<text text-anchor="middle" x="271.9" y="-86.3" font-family="Times,serif" font-size="14.00">p, 4</text>
</g>
<!-- l22&#45;&gt;l33 -->
<g id="edge7" class="edge">
<title>l22&#45;&gt;l33</title>
<path fill="none" stroke="black" d="M195.16,-145.81C209.98,-135.23 229.85,-121.04 245.65,-109.75"/>
<polygon fill="black" stroke="black" points="247.85,-112.47 253.96,-103.81 243.78,-106.78 247.85,-112.47"/>
</g>
<!-- l41 -->
<g id="node9" class="node">
<title>l41</title>
<ellipse fill="none" stroke="black" cx="148.9" cy="-18" rx="61.19" ry="18"/>
<text text-anchor="middle" x="148.9" y="-14.3" font-family="Times,serif" font-size="14.00">Falsifier wins.</text>
</g>
<!-- l32&#45;&gt;l41 -->
<g id="edge8" class="edge">
<title>l32&#45;&gt;l41</title>
<path fill="none" stroke="black" d="M161.78,-72.05C159.89,-64.26 157.59,-54.82 155.47,-46.08"/>
<polygon fill="black" stroke="black" points="158.85,-45.17 153.09,-36.28 152.05,-46.82 158.85,-45.17"/>
</g>
<!-- l42 -->
<g id="node10" class="node">
<title>l42</title>
<ellipse fill="none" stroke="black" cx="288.9" cy="-18" rx="61.19" ry="18"/>
<text text-anchor="middle" x="288.9" y="-14.3" font-family="Times,serif" font-size="14.00">Falsifier wins.</text>
</g>
<!-- l33&#45;&gt;l42 -->
<g id="edge9" class="edge">
<title>l33&#45;&gt;l42</title>
<path fill="none" stroke="black" d="M276.01,-72.05C277.9,-64.26 280.2,-54.82 282.32,-46.08"/>
<polygon fill="black" stroke="black" points="285.74,-46.82 284.7,-36.28 278.94,-45.17 285.74,-46.82"/>
</g>
</g>
</svg>
