<?xml version="1.0" encoding="UTF-8" standalone="no"?>
<!DOCTYPE svg PUBLIC "-//W3C//DTD SVG 1.1//EN"
 "http://www.w3.org/Graphics/SVG/1.1/DTD/svg11.dtd">
<!-- Generated by graphviz version 2.50.0 (20211204.2007)
 -->
<!-- Title: g Pages: 1 -->
<svg width="134pt" height="188pt"
 viewBox="0.00 0.00 134.00 188.00" xmlns="http://www.w3.org/2000/svg" xmlns:xlink="http://www.w3.org/1999/xlink">
<g id="graph0" class="graph" transform="scale(1 1) rotate(0) translate(4 184)">
<title>g</title>
<polygon fill="white" stroke="transparent" points="-4,4 -4,-184 130,-184 130,4 -4,4"/>
<!-- a -->
<g id="node1" class="node">
<title>a</title>
<ellipse fill="none" stroke="black" cx="63" cy="-18" rx="27" ry="18"/>
<text text-anchor="middle" x="63" y="-14.3" font-family="Times,serif" font-size="14.00">a</text>
</g>
<!-- b -->
<g id="node2" class="node">
<title>b</title>
<ellipse fill="none" stroke="black" cx="27" cy="-90" rx="27" ry="18"/>
<text text-anchor="middle" x="27" y="-86.3" font-family="Times,serif" font-size="14.00">b</text>
</g>
<!-- a&#45;&gt;b -->
<g id="edge1" class="edge">
<title>a&#45;&gt;b</title>
<path fill="none" stroke="black" d="M54.65,-35.24C50.29,-43.72 44.85,-54.29 39.96,-63.8"/>
<polygon fill="black" stroke="black" points="36.77,-62.36 35.3,-72.85 42.99,-65.56 36.77,-62.36"/>
</g>
<!-- c -->
<g id="node3" class="node">
<title>c</title>
<ellipse fill="none" stroke="black" cx="99" cy="-90" rx="27" ry="18"/>
<text text-anchor="middle" x="99" y="-86.3" font-family="Times,serif" font-size="14.00">c</text>
<text text-anchor="middle" x="68.5" y="-60.8" font-family="Times,serif" font-size="14.00">p</text>
</g>
<!-- a&#45;&gt;c -->
<g id="edge2" class="edge">
<title>a&#45;&gt;c</title>
<path fill="none" stroke="black" d="M71.35,-35.24C75.71,-43.72 81.15,-54.29 86.04,-63.8"/>
<polygon fill="black" stroke="black" points="83.01,-65.56 90.7,-72.85 89.23,-62.36 83.01,-65.56"/>
</g>
<!-- d -->
<g id="node4" class="node">
<title>d</title>
<ellipse fill="none" stroke="black" cx="63" cy="-162" rx="27" ry="18"/>
<text text-anchor="middle" x="63" y="-158.3" font-family="Times,serif" font-size="14.00">d</text>
<text text-anchor="middle" x="32.5" y="-132.8" font-family="Times,serif" font-size="14.00">q</text>
</g>
<!-- b&#45;&gt;d -->
<g id="edge4" class="edge">
<title>b&#45;&gt;d</title>
<path fill="none" stroke="black" d="M35.35,-107.24C39.71,-115.72 45.15,-126.29 50.04,-135.8"/>
<polygon fill="black" stroke="black" points="47.01,-137.56 54.7,-144.85 53.23,-134.36 47.01,-137.56"/>
</g>
<!-- c&#45;&gt;d -->
<g id="edge3" class="edge">
<title>c&#45;&gt;d</title>
<path fill="none" stroke="black" d="M90.65,-107.24C86.29,-115.72 80.85,-126.29 75.96,-135.8"/>
<polygon fill="black" stroke="black" points="72.77,-134.36 71.3,-144.85 78.99,-137.56 72.77,-134.36"/>
</g>
</g>
</svg>
