<?xml version="1.0" encoding="UTF-8" standalone="no"?>
<!DOCTYPE svg PUBLIC "-//W3C//DTD SVG 1.1//EN"
 "http://www.w3.org/Graphics/SVG/1.1/DTD/svg11.dtd">
<!-- Generated by graphviz version 2.50.0 (20211204.2007)
 -->
<!-- Title: g Pages: 1 -->
<svg width="96pt" height="116pt"
 viewBox="0.00 0.00 96.00 116.00" xmlns="http://www.w3.org/2000/svg" xmlns:xlink="http://www.w3.org/1999/xlink">
<g id="graph0" class="graph" transform="scale(1 1) rotate(0) translate(4 112)">
<title>g</title>
<polygon fill="white" stroke="transparent" points="-4,4 -4,-112 92,-112 92,4 -4,4"/>
<!-- ac -->
<g id="node1" class="node">
<title>ac</title>
<ellipse fill="none" stroke="black" cx="43" cy="-90" rx="27" ry="18"/>
<text text-anchor="middle" x="43" y="-86.3" font-family="Times,serif" font-size="14.00">ac</text>
</g>
<!-- ac&#45;&gt;ac -->
<g id="edge3" class="edge">
<title>ac&#45;&gt;ac</title>
<path fill="none" stroke="black" d="M62.9,-102.43C75.69,-105.68 88,-101.53 88,-90 88,-81.62 81.5,-77.14 73.04,-76.56"/>
<polygon fill="black" stroke="black" points="72.5,-73.1 62.9,-77.57 73.19,-80.07 72.5,-73.1"/>
</g>
<!-- b -->
<g id="node2" class="node">
<title>b</title>
<ellipse fill="none" stroke="black" cx="43" cy="-18" rx="27" ry="18"/>
<text text-anchor="middle" x="43" y="-14.3" font-family="Times,serif" font-size="14.00">b</text>
<text text-anchor="middle" x="8" y="-39.8" font-family="Times,serif" font-size="14.00">[p]</text>
</g>
<!-- ac&#45;&gt;b -->
<g id="edge1" class="edge">
<title>ac&#45;&gt;b</title>
<path fill="none" stroke="black" d="M37.16,-72.41C36.3,-64.51 36.05,-54.85 36.41,-45.94"/>
<polygon fill="black" stroke="black" points="39.9,-46.18 37.12,-35.96 32.92,-45.68 39.9,-46.18"/>
</g>
<!-- b&#45;&gt;ac -->
<g id="edge2" class="edge">
<title>b&#45;&gt;ac</title>
<path fill="none" stroke="black" d="M48.88,-35.96C49.71,-43.83 49.95,-53.37 49.58,-62.19"/>
<polygon fill="black" stroke="black" points="46.07,-62.18 48.84,-72.41 53.06,-62.69 46.07,-62.18"/>
</g>
</g>
</svg>
