<?xml version="1.0" encoding="UTF-8" standalone="no"?>
<!DOCTYPE svg PUBLIC "-//W3C//DTD SVG 1.1//EN"
 "http://www.w3.org/Graphics/SVG/1.1/DTD/svg11.dtd">
<!-- Generated by graphviz version 2.50.0 (20211204.2007)
 -->
<!-- Title: g Pages: 1 -->
<svg width="152pt" height="113pt"
 viewBox="0.00 0.00 152.00 113.00" xmlns="http://www.w3.org/2000/svg" xmlns:xlink="http://www.w3.org/1999/xlink">
<g id="graph0" class="graph" transform="scale(1 1) rotate(0) translate(4 109)">
<title>g</title>
<polygon fill="white" stroke="transparent" points="-4,4 -4,-109 148,-109 148,4 -4,4"/>
<!-- 1 -->
<g id="node1" class="node">
<title>1</title>
<ellipse fill="none" stroke="black" cx="27" cy="-60" rx="27" ry="18"/>
<text text-anchor="middle" x="27" y="-56.3" font-family="Times,serif" font-size="14.00">1</text>
</g>
<!-- 2 -->
<g id="node2" class="node">
<title>2</title>
<ellipse fill="none" stroke="black" cx="117" cy="-87" rx="27" ry="18"/>
<text text-anchor="middle" x="117" y="-83.3" font-family="Times,serif" font-size="14.00">2</text>
</g>
<!-- 1&#45;&gt;2 -->
<g id="edge1" class="edge">
<title>1&#45;&gt;2</title>
<path fill="none" stroke="black" d="M52.05,-67.38C61.44,-70.26 72.36,-73.61 82.5,-76.72"/>
<polygon fill="black" stroke="black" points="81.7,-80.14 92.29,-79.72 83.75,-73.45 81.7,-80.14"/>
</g>
<!-- 3 -->
<g id="node3" class="node">
<title>3</title>
<ellipse fill="none" stroke="black" cx="117" cy="-33" rx="27" ry="18"/>
<text text-anchor="middle" x="117" y="-29.3" font-family="Times,serif" font-size="14.00">3</text>
<text text-anchor="middle" x="86.5" y="-3.8" font-family="Times,serif" font-size="14.00">p</text>
</g>
<!-- 1&#45;&gt;3 -->
<g id="edge2" class="edge">
<title>1&#45;&gt;3</title>
<path fill="none" stroke="black" d="M52.05,-52.62C61.44,-49.74 72.36,-46.39 82.5,-43.28"/>
<polygon fill="black" stroke="black" points="83.75,-46.55 92.29,-40.28 81.7,-39.86 83.75,-46.55"/>
</g>
</g>
</svg>
