<?xml version="1.0" encoding="UTF-8" standalone="no"?>
<!DOCTYPE svg PUBLIC "-//W3C//DTD SVG 1.1//EN"
 "http://www.w3.org/Graphics/SVG/1.1/DTD/svg11.dtd">
<!-- Generated by graphviz version 2.50.0 (20211204.2007)
 -->
<!-- Title: g Pages: 1 -->
<svg width="402pt" height="347pt"
 viewBox="0.00 0.00 402.29 347.00" xmlns="http://www.w3.org/2000/svg" xmlns:xlink="http://www.w3.org/1999/xlink">
<g id="graph0" class="graph" transform="scale(1 1) rotate(0) translate(4 343)">
<title>g</title>
<polygon fill="white" stroke="transparent" points="-4,4 -4,-343 398.29,-343 398.29,4 -4,4"/>
<!-- root -->
<g id="node1" class="node">
<title>root</title>
<ellipse fill="none" stroke="black" cx="265.49" cy="-306" rx="67.69" ry="18"/>
<text text-anchor="middle" x="265.49" y="-302.3" font-family="Times,serif" font-size="14.00">M, 1 ⊨ ◇ □ ◇ p</text>
<text text-anchor="middle" x="175.9" y="-327.8" font-family="Times,serif" font-size="14.00">Turn: V</text>
</g>
<!-- l11 -->
<g id="node2" class="node">
<title>l11</title>
<ellipse fill="none" stroke="black" cx="196.49" cy="-234" rx="59.59" ry="18"/>
<text text-anchor="middle" x="196.49" y="-230.3" font-family="Times,serif" font-size="14.00">M, 4 ⊨ □ ◇ p</text>
<text text-anchor="middle" x="115.7" y="-255.8" font-family="Times,serif" font-size="14.00">Turn: F</text>
</g>
<!-- root&#45;&gt;l11 -->
<g id="edge1" class="edge">
<title>root&#45;&gt;l11</title>
<path fill="none" stroke="black" d="M249.14,-288.41C240.38,-279.52 229.43,-268.41 219.79,-258.63"/>
<polygon fill="black" stroke="black" points="222.24,-256.13 212.73,-251.47 217.26,-261.05 222.24,-256.13"/>
</g>
<!-- r11 -->
<g id="node3" class="node">
<title>r11</title>
<ellipse fill="none" stroke="black" cx="334.49" cy="-234" rx="59.59" ry="18"/>
<text text-anchor="middle" x="334.49" y="-230.3" font-family="Times,serif" font-size="14.00">M, 3 ⊨ □ ◇ p</text>
<text text-anchor="middle" x="253.7" y="-255.8" font-family="Times,serif" font-size="14.00">Turn: F</text>
</g>
<!-- root&#45;&gt;r11 -->
<g id="edge2" class="edge">
<title>root&#45;&gt;r11</title>
<path fill="none" stroke="black" d="M281.85,-288.41C290.61,-279.52 301.56,-268.41 311.2,-258.63"/>
<polygon fill="black" stroke="black" points="313.73,-261.05 318.26,-251.47 308.75,-256.13 313.73,-261.05"/>
</g>
<!-- r21 -->
<g id="node4" class="node">
<title>r21</title>
<ellipse fill="none" stroke="black" cx="196.49" cy="-162" rx="51.99" ry="18"/>
<text text-anchor="middle" x="196.49" y="-158.3" font-family="Times,serif" font-size="14.00">M, 3 ⊨ ◇ p</text>
<text text-anchor="middle" x="122.5" y="-183.8" font-family="Times,serif" font-size="14.00">Turn: V</text>
</g>
<!-- l11&#45;&gt;r21 -->
<g id="edge11" class="edge">
<title>l11&#45;&gt;r21</title>
<path fill="none" stroke="black" d="M196.49,-215.7C196.49,-207.98 196.49,-198.71 196.49,-190.11"/>
<polygon fill="black" stroke="black" points="199.99,-190.1 196.49,-180.1 192.99,-190.1 199.99,-190.1"/>
</g>
<!-- r11&#45;&gt;r21 -->
<g id="edge3" class="edge">
<title>r11&#45;&gt;r21</title>
<path fill="none" stroke="black" d="M305.23,-218.15C284.37,-207.57 256.16,-193.26 233.7,-181.87"/>
<polygon fill="black" stroke="black" points="235.28,-178.75 224.78,-177.35 232.11,-184.99 235.28,-178.75"/>
</g>
<!-- r22 -->
<g id="node9" class="node">
<title>r22</title>
<ellipse fill="none" stroke="black" cx="334.49" cy="-162" rx="51.99" ry="18"/>
<text text-anchor="middle" x="334.49" y="-158.3" font-family="Times,serif" font-size="14.00">M, 2 ⊨ ◇ p</text>
<text text-anchor="middle" x="260.5" y="-183.8" font-family="Times,serif" font-size="14.00">Turn: V</text>
</g>
<!-- r11&#45;&gt;r22 -->
<g id="edge8" class="edge">
<title>r11&#45;&gt;r22</title>
<path fill="none" stroke="black" d="M334.49,-215.7C334.49,-207.98 334.49,-198.71 334.49,-190.11"/>
<polygon fill="black" stroke="black" points="337.99,-190.1 334.49,-180.1 330.99,-190.1 337.99,-190.1"/>
</g>
<!-- r31 -->
<g id="node5" class="node">
<title>r31</title>
<ellipse fill="none" stroke="black" cx="72.49" cy="-90" rx="46.29" ry="18"/>
<text text-anchor="middle" x="72.49" y="-86.3" font-family="Times,serif" font-size="14.00">M, 2 ⊨ p.</text>
</g>
<!-- r21&#45;&gt;r31 -->
<g id="edge4" class="edge">
<title>r21&#45;&gt;r31</title>
<path fill="none" stroke="black" d="M170.5,-146.33C151.9,-135.83 126.69,-121.59 106.49,-110.19"/>
<polygon fill="black" stroke="black" points="108.04,-107.04 97.61,-105.18 104.6,-113.14 108.04,-107.04"/>
</g>
<!-- r32 -->
<g id="node7" class="node">
<title>r32</title>
<ellipse fill="none" stroke="black" cx="196.49" cy="-90" rx="46.29" ry="18"/>
<text text-anchor="middle" x="196.49" y="-86.3" font-family="Times,serif" font-size="14.00">M, 3 ⊨ p.</text>
</g>
<!-- r21&#45;&gt;r32 -->
<g id="edge6" class="edge">
<title>r21&#45;&gt;r32</title>
<path fill="none" stroke="black" d="M196.49,-143.7C196.49,-135.98 196.49,-126.71 196.49,-118.11"/>
<polygon fill="black" stroke="black" points="199.99,-118.1 196.49,-108.1 192.99,-118.1 199.99,-118.1"/>
</g>
<!-- r41 -->
<g id="node6" class="node">
<title>r41</title>
<ellipse fill="none" stroke="black" cx="58.49" cy="-18" rx="58.49" ry="18"/>
<text text-anchor="middle" x="58.49" y="-14.3" font-family="Times,serif" font-size="14.00">Verifier wins.</text>
</g>
<!-- r31&#45;&gt;r41 -->
<g id="edge5" class="edge">
<title>r31&#45;&gt;r41</title>
<path fill="none" stroke="black" d="M69.03,-71.7C67.49,-63.98 65.64,-54.71 63.92,-46.11"/>
<polygon fill="black" stroke="black" points="67.31,-45.22 61.92,-36.1 60.44,-46.6 67.31,-45.22"/>
</g>
<!-- r42 -->
<g id="node8" class="node">
<title>r42</title>
<ellipse fill="none" stroke="black" cx="196.49" cy="-18" rx="61.19" ry="18"/>
<text text-anchor="middle" x="196.49" y="-14.3" font-family="Times,serif" font-size="14.00">Falsifier wins.</text>
</g>
<!-- r32&#45;&gt;r42 -->
<g id="edge7" class="edge">
<title>r32&#45;&gt;r42</title>
<path fill="none" stroke="black" d="M196.49,-71.7C196.49,-63.98 196.49,-54.71 196.49,-46.11"/>
<polygon fill="black" stroke="black" points="199.99,-46.1 196.49,-36.1 192.99,-46.1 199.99,-46.1"/>
</g>
<!-- r33 -->
<g id="node10" class="node">
<title>r33</title>
<ellipse fill="none" stroke="black" cx="334.49" cy="-90" rx="46.29" ry="18"/>
<text text-anchor="middle" x="334.49" y="-86.3" font-family="Times,serif" font-size="14.00">M, 1 ⊨ p.</text>
</g>
<!-- r22&#45;&gt;r33 -->
<g id="edge9" class="edge">
<title>r22&#45;&gt;r33</title>
<path fill="none" stroke="black" d="M334.49,-143.7C334.49,-135.98 334.49,-126.71 334.49,-118.11"/>
<polygon fill="black" stroke="black" points="337.99,-118.1 334.49,-108.1 330.99,-118.1 337.99,-118.1"/>
</g>
<!-- r43 -->
<g id="node11" class="node">
<title>r43</title>
<ellipse fill="none" stroke="black" cx="334.49" cy="-18" rx="58.49" ry="18"/>
<text text-anchor="middle" x="334.49" y="-14.3" font-family="Times,serif" font-size="14.00">Verifier wins.</text>
</g>
<!-- r33&#45;&gt;r43 -->
<g id="edge10" class="edge">
<title>r33&#45;&gt;r43</title>
<path fill="none" stroke="black" d="M334.49,-71.7C334.49,-63.98 334.49,-54.71 334.49,-46.11"/>
<polygon fill="black" stroke="black" points="337.99,-46.1 334.49,-36.1 330.99,-46.1 337.99,-46.1"/>
</g>
</g>
</svg>
