<?xml version="1.0" encoding="UTF-8" standalone="no"?>
<!DOCTYPE svg PUBLIC "-//W3C//DTD SVG 1.1//EN"
 "http://www.w3.org/Graphics/SVG/1.1/DTD/svg11.dtd">
<!-- Generated by graphviz version 2.50.0 (20211204.2007)
 -->
<!-- Title: g Pages: 1 -->
<svg width="242pt" height="59pt"
 viewBox="0.00 0.00 242.00 59.00" xmlns="http://www.w3.org/2000/svg" xmlns:xlink="http://www.w3.org/1999/xlink">
<g id="graph0" class="graph" transform="scale(1 1) rotate(0) translate(4 55)">
<title>g</title>
<polygon fill="white" stroke="transparent" points="-4,4 -4,-55 238,-55 238,4 -4,4"/>
<!-- 2 -->
<g id="node1" class="node">
<title>2</title>
<ellipse fill="none" stroke="black" cx="117" cy="-33" rx="27" ry="18"/>
<text text-anchor="middle" x="117" y="-29.3" font-family="Times,serif" font-size="14.00">2</text>
<text text-anchor="middle" x="86.5" y="-3.8" font-family="Times,serif" font-size="14.00">p</text>
</g>
<!-- 3 -->
<g id="node3" class="node">
<title>3</title>
<ellipse fill="none" stroke="black" cx="207" cy="-33" rx="27" ry="18"/>
<text text-anchor="middle" x="207" y="-29.3" font-family="Times,serif" font-size="14.00">3</text>
</g>
<!-- 2&#45;&gt;3 -->
<g id="edge2" class="edge">
<title>2&#45;&gt;3</title>
<path fill="none" stroke="black" d="M144.4,-33C152.39,-33 161.31,-33 169.82,-33"/>
<polygon fill="black" stroke="black" points="169.92,-36.5 179.92,-33 169.92,-29.5 169.92,-36.5"/>
</g>
<!-- 1 -->
<g id="node2" class="node">
<title>1</title>
<ellipse fill="none" stroke="black" cx="27" cy="-33" rx="27" ry="18"/>
<text text-anchor="middle" x="27" y="-29.3" font-family="Times,serif" font-size="14.00">1</text>
</g>
<!-- 1&#45;&gt;2 -->
<g id="edge1" class="edge">
<title>1&#45;&gt;2</title>
<path fill="none" stroke="black" d="M54.4,-33C62.39,-33 71.31,-33 79.82,-33"/>
<polygon fill="black" stroke="black" points="79.92,-36.5 89.92,-33 79.92,-29.5 79.92,-36.5"/>
</g>
</g>
</svg>
