<?xml version="1.0" encoding="UTF-8" standalone="no"?>
<!DOCTYPE svg PUBLIC "-//W3C//DTD SVG 1.1//EN"
 "http://www.w3.org/Graphics/SVG/1.1/DTD/svg11.dtd">
<!-- Generated by graphviz version 2.50.0 (20211204.2007)
 -->
<!-- Title: g Pages: 1 -->
<svg width="98pt" height="275pt"
 viewBox="0.00 0.00 98.00 275.00" xmlns="http://www.w3.org/2000/svg" xmlns:xlink="http://www.w3.org/1999/xlink">
<g id="graph0" class="graph" transform="scale(1 1) rotate(0) translate(4 271)">
<title>g</title>
<polygon fill="white" stroke="transparent" points="-4,4 -4,-271 94,-271 94,4 -4,4"/>
<!-- 1 -->
<g id="node1" class="node">
<title>1</title>
<ellipse fill="none" stroke="black" cx="45" cy="-234" rx="27" ry="18"/>
<text text-anchor="middle" x="45" y="-230.3" font-family="Times,serif" font-size="14.00">1</text>
<text text-anchor="middle" x="14.5" y="-255.8" font-family="Times,serif" font-size="14.00">p</text>
</g>
<!-- 3 -->
<g id="node3" class="node">
<title>3</title>
<ellipse fill="none" stroke="black" cx="27" cy="-90" rx="27" ry="18"/>
<text text-anchor="middle" x="27" y="-86.3" font-family="Times,serif" font-size="14.00">3</text>
</g>
<!-- 1&#45;&gt;3 -->
<g id="edge1" class="edge">
<title>1&#45;&gt;3</title>
<path fill="none" stroke="black" d="M31.25,-218.07C23.04,-208.1 13.38,-194.25 9,-180 2.58,-159.12 8.38,-134.77 15.06,-116.82"/>
<polygon fill="black" stroke="black" points="18.4,-117.9 18.9,-107.32 11.91,-115.28 18.4,-117.9"/>
</g>
<!-- 4 -->
<g id="node4" class="node">
<title>4</title>
<ellipse fill="none" stroke="black" cx="45" cy="-162" rx="27" ry="18"/>
<text text-anchor="middle" x="45" y="-158.3" font-family="Times,serif" font-size="14.00">4</text>
</g>
<!-- 1&#45;&gt;4 -->
<g id="edge2" class="edge">
<title>1&#45;&gt;4</title>
<path fill="none" stroke="black" d="M45,-215.7C45,-207.98 45,-198.71 45,-190.11"/>
<polygon fill="black" stroke="black" points="48.5,-190.1 45,-180.1 41.5,-190.1 48.5,-190.1"/>
</g>
<!-- 2 -->
<g id="node2" class="node">
<title>2</title>
<ellipse fill="none" stroke="black" cx="63" cy="-18" rx="27" ry="18"/>
<text text-anchor="middle" x="63" y="-14.3" font-family="Times,serif" font-size="14.00">2</text>
<text text-anchor="middle" x="32.5" y="-39.8" font-family="Times,serif" font-size="14.00">p</text>
</g>
<!-- 2&#45;&gt;1 -->
<g id="edge3" class="edge">
<title>2&#45;&gt;1</title>
<path fill="none" stroke="black" d="M70.29,-35.82C74.33,-46.06 78.94,-59.54 81,-72 88.82,-119.36 95.11,-134.12 81,-180 77.71,-190.69 71.46,-201.15 65.07,-209.92"/>
<polygon fill="black" stroke="black" points="62.12,-208.02 58.75,-218.07 67.65,-212.31 62.12,-208.02"/>
</g>
<!-- 3&#45;&gt;2 -->
<g id="edge4" class="edge">
<title>3&#45;&gt;2</title>
<path fill="none" stroke="black" d="M35.35,-72.76C39.71,-64.28 45.15,-53.71 50.04,-44.2"/>
<polygon fill="black" stroke="black" points="53.23,-45.64 54.7,-35.15 47.01,-42.44 53.23,-45.64"/>
</g>
<!-- 3&#45;&gt;3 -->
<g id="edge5" class="edge">
<title>3&#45;&gt;3</title>
<path fill="none" stroke="black" d="M46.9,-102.43C59.69,-105.68 72,-101.53 72,-90 72,-81.62 65.5,-77.14 57.04,-76.56"/>
<polygon fill="black" stroke="black" points="56.5,-73.1 46.9,-77.57 57.19,-80.07 56.5,-73.1"/>
</g>
<!-- 4&#45;&gt;3 -->
<g id="edge6" class="edge">
<title>4&#45;&gt;3</title>
<path fill="none" stroke="black" d="M40.64,-144.05C38.61,-136.14 36.14,-126.54 33.86,-117.69"/>
<polygon fill="black" stroke="black" points="37.2,-116.6 31.32,-107.79 30.42,-118.35 37.2,-116.6"/>
</g>
</g>
</svg>
