<?xml version="1.0" encoding="UTF-8" standalone="no"?>
<!DOCTYPE svg PUBLIC "-//W3C//DTD SVG 1.1//EN"
 "http://www.w3.org/Graphics/SVG/1.1/DTD/svg11.dtd">
<!-- Generated by graphviz version 2.50.0 (20211204.2007)
 -->
<!-- Title: g Pages: 1 -->
<svg width="141pt" height="275pt"
 viewBox="0.00 0.00 141.00 275.00" xmlns="http://www.w3.org/2000/svg" xmlns:xlink="http://www.w3.org/1999/xlink">
<g id="graph0" class="graph" transform="scale(1 1) rotate(0) translate(4 271)">
<title>g</title>
<polygon fill="white" stroke="transparent" points="-4,4 -4,-271 137,-271 137,4 -4,4"/>
<!-- 1 -->
<g id="node1" class="node">
<title>1</title>
<ellipse fill="none" stroke="black" cx="70" cy="-234" rx="27" ry="18"/>
<text text-anchor="middle" x="70" y="-230.3" font-family="Times,serif" font-size="14.00">1</text>
<text text-anchor="middle" x="39.5" y="-255.8" font-family="Times,serif" font-size="14.00">p</text>
</g>
<!-- 2 -->
<g id="node2" class="node">
<title>2</title>
<ellipse fill="none" stroke="black" cx="70" cy="-162" rx="27" ry="18"/>
<text text-anchor="middle" x="70" y="-158.3" font-family="Times,serif" font-size="14.00">2</text>
<text text-anchor="middle" x="39.5" y="-183.8" font-family="Times,serif" font-size="14.00">q</text>
</g>
<!-- 1&#45;&gt;2 -->
<g id="edge1" class="edge">
<title>1&#45;&gt;2</title>
<path fill="none" stroke="black" d="M70,-215.7C70,-207.98 70,-198.71 70,-190.11"/>
<polygon fill="black" stroke="black" points="73.5,-190.1 70,-180.1 66.5,-190.1 73.5,-190.1"/>
</g>
<!-- 3 -->
<g id="node3" class="node">
<title>3</title>
<ellipse fill="none" stroke="black" cx="70" cy="-90" rx="27" ry="18"/>
<text text-anchor="middle" x="70" y="-86.3" font-family="Times,serif" font-size="14.00">3</text>
<text text-anchor="middle" x="39.5" y="-111.8" font-family="Times,serif" font-size="14.00">q</text>
</g>
<!-- 2&#45;&gt;3 -->
<g id="edge2" class="edge">
<title>2&#45;&gt;3</title>
<path fill="none" stroke="black" d="M70,-143.7C70,-135.98 70,-126.71 70,-118.11"/>
<polygon fill="black" stroke="black" points="73.5,-118.1 70,-108.1 66.5,-118.1 73.5,-118.1"/>
</g>
<!-- 4 -->
<g id="node4" class="node">
<title>4</title>
<ellipse fill="none" stroke="black" cx="34" cy="-18" rx="27" ry="18"/>
<text text-anchor="middle" x="34" y="-14.3" font-family="Times,serif" font-size="14.00">4</text>
<text text-anchor="middle" x="3.5" y="-39.8" font-family="Times,serif" font-size="14.00">q</text>
</g>
<!-- 3&#45;&gt;4 -->
<g id="edge3" class="edge">
<title>3&#45;&gt;4</title>
<path fill="none" stroke="black" d="M61.65,-72.76C57.29,-64.28 51.85,-53.71 46.96,-44.2"/>
<polygon fill="black" stroke="black" points="49.99,-42.44 42.3,-35.15 43.77,-45.64 49.99,-42.44"/>
</g>
<!-- 5 -->
<g id="node5" class="node">
<title>5</title>
<ellipse fill="none" stroke="black" cx="106" cy="-18" rx="27" ry="18"/>
<text text-anchor="middle" x="106" y="-14.3" font-family="Times,serif" font-size="14.00">5</text>
<text text-anchor="middle" x="75.5" y="-39.8" font-family="Times,serif" font-size="14.00">q</text>
</g>
<!-- 3&#45;&gt;5 -->
<g id="edge4" class="edge">
<title>3&#45;&gt;5</title>
<path fill="none" stroke="black" d="M78.35,-72.76C82.71,-64.28 88.15,-53.71 93.04,-44.2"/>
<polygon fill="black" stroke="black" points="96.23,-45.64 97.7,-35.15 90.01,-42.44 96.23,-45.64"/>
</g>
</g>
</svg>
