<?xml version="1.0" encoding="UTF-8" standalone="no"?>
<!DOCTYPE svg PUBLIC "-//W3C//DTD SVG 1.1//EN"
 "http://www.w3.org/Graphics/SVG/1.1/DTD/svg11.dtd">
<!-- Generated by graphviz version 2.50.0 (20211204.2007)
 -->
<!-- Title: g Pages: 1 -->
<svg width="141pt" height="275pt"
 viewBox="0.00 0.00 141.00 275.00" xmlns="http://www.w3.org/2000/svg" xmlns:xlink="http://www.w3.org/1999/xlink">
<g id="graph0" class="graph" transform="scale(1 1) rotate(0) translate(4 271)">
<title>g</title>
<polygon fill="white" stroke="transparent" points="-4,4 -4,-271 137,-271 137,4 -4,4"/>
<!-- a -->
<g id="node1" class="node">
<title>a</title>
<ellipse fill="none" stroke="black" cx="70" cy="-234" rx="27" ry="18"/>
<text text-anchor="middle" x="70" y="-230.3" font-family="Times,serif" font-size="14.00">a</text>
<text text-anchor="middle" x="39.5" y="-255.8" font-family="Times,serif" font-size="14.00">p</text>
</g>
<!-- b -->
<g id="node2" class="node">
<title>b</title>
<ellipse fill="none" stroke="black" cx="34" cy="-162" rx="27" ry="18"/>
<text text-anchor="middle" x="34" y="-158.3" font-family="Times,serif" font-size="14.00">b</text>
<text text-anchor="middle" x="3.5" y="-183.8" font-family="Times,serif" font-size="14.00">q</text>
</g>
<!-- a&#45;&gt;b -->
<g id="edge1" class="edge">
<title>a&#45;&gt;b</title>
<path fill="none" stroke="black" d="M61.65,-216.76C57.29,-208.28 51.85,-197.71 46.96,-188.2"/>
<polygon fill="black" stroke="black" points="49.99,-186.44 42.3,-179.15 43.77,-189.64 49.99,-186.44"/>
</g>
<!-- c -->
<g id="node3" class="node">
<title>c</title>
<ellipse fill="none" stroke="black" cx="106" cy="-162" rx="27" ry="18"/>
<text text-anchor="middle" x="106" y="-158.3" font-family="Times,serif" font-size="14.00">c</text>
<text text-anchor="middle" x="75.5" y="-183.8" font-family="Times,serif" font-size="14.00">q</text>
</g>
<!-- a&#45;&gt;c -->
<g id="edge2" class="edge">
<title>a&#45;&gt;c</title>
<path fill="none" stroke="black" d="M78.35,-216.76C82.71,-208.28 88.15,-197.71 93.04,-188.2"/>
<polygon fill="black" stroke="black" points="96.23,-189.64 97.7,-179.15 90.01,-186.44 96.23,-189.64"/>
</g>
<!-- d -->
<g id="node4" class="node">
<title>d</title>
<ellipse fill="none" stroke="black" cx="70" cy="-90" rx="27" ry="18"/>
<text text-anchor="middle" x="70" y="-86.3" font-family="Times,serif" font-size="14.00">d</text>
<text text-anchor="middle" x="39.5" y="-111.8" font-family="Times,serif" font-size="14.00">q</text>
</g>
<!-- b&#45;&gt;d -->
<g id="edge4" class="edge">
<title>b&#45;&gt;d</title>
<path fill="none" stroke="black" d="M42.35,-144.76C46.71,-136.28 52.15,-125.71 57.04,-116.2"/>
<polygon fill="black" stroke="black" points="60.23,-117.64 61.7,-107.15 54.01,-114.44 60.23,-117.64"/>
</g>
<!-- c&#45;&gt;d -->
<g id="edge3" class="edge">
<title>c&#45;&gt;d</title>
<path fill="none" stroke="black" d="M97.65,-144.76C93.29,-136.28 87.85,-125.71 82.96,-116.2"/>
<polygon fill="black" stroke="black" points="85.99,-114.44 78.3,-107.15 79.77,-117.64 85.99,-114.44"/>
</g>
<!-- e -->
<g id="node5" class="node">
<title>e</title>
<ellipse fill="none" stroke="black" cx="70" cy="-18" rx="27" ry="18"/>
<text text-anchor="middle" x="70" y="-14.3" font-family="Times,serif" font-size="14.00">e</text>
<text text-anchor="middle" x="39.5" y="-39.8" font-family="Times,serif" font-size="14.00">q</text>
</g>
<!-- d&#45;&gt;e -->
<g id="edge5" class="edge">
<title>d&#45;&gt;e</title>
<path fill="none" stroke="black" d="M70,-71.7C70,-63.98 70,-54.71 70,-46.11"/>
<polygon fill="black" stroke="black" points="73.5,-46.1 70,-36.1 66.5,-46.1 73.5,-46.1"/>
</g>
</g>
</svg>
