<?xml version="1.0" encoding="UTF-8" standalone="no"?>
<!DOCTYPE svg PUBLIC "-//W3C//DTD SVG 1.1//EN"
 "http://www.w3.org/Graphics/SVG/1.1/DTD/svg11.dtd">
<!-- Generated by graphviz version 2.50.0 (20211204.2007)
 -->
<!-- Title: g Pages: 1 -->
<svg width="223pt" height="260pt"
 viewBox="0.00 0.00 222.95 260.00" xmlns="http://www.w3.org/2000/svg" xmlns:xlink="http://www.w3.org/1999/xlink">
<g id="graph0" class="graph" transform="scale(1 1) rotate(0) translate(4 256)">
<title>g</title>
<polygon fill="white" stroke="transparent" points="-4,4 -4,-256 218.95,-256 218.95,4 -4,4"/>
<!-- a -->
<g id="node1" class="node">
<title>a</title>
<ellipse fill="none" stroke="black" cx="64.95" cy="-234" rx="27" ry="18"/>
<text text-anchor="middle" x="64.95" y="-230.3" font-family="Times,serif" font-size="14.00">(1)</text>
</g>
<!-- b -->
<g id="node2" class="node">
<title>b</title>
<ellipse fill="none" stroke="black" cx="27.95" cy="-162" rx="27.9" ry="18"/>
<text text-anchor="middle" x="27.95" y="-158.3" font-family="Times,serif" font-size="14.00">(1,2)</text>
</g>
<!-- a&#45;&gt;b -->
<g id="edge1" class="edge">
<title>a&#45;&gt;b</title>
<path fill="none" stroke="black" d="M56.37,-216.76C51.88,-208.28 46.3,-197.71 41.27,-188.2"/>
<polygon fill="black" stroke="black" points="44.25,-186.35 36.48,-179.15 38.06,-189.62 44.25,-186.35"/>
</g>
<!-- c -->
<g id="node3" class="node">
<title>c</title>
<ellipse fill="none" stroke="black" cx="101.95" cy="-162" rx="27.9" ry="18"/>
<text text-anchor="middle" x="101.95" y="-158.3" font-family="Times,serif" font-size="14.00">(1,1)</text>
</g>
<!-- a&#45;&gt;c -->
<g id="edge2" class="edge">
<title>a&#45;&gt;c</title>
<path fill="none" stroke="black" d="M73.53,-216.76C78.01,-208.28 83.6,-197.71 88.63,-188.2"/>
<polygon fill="black" stroke="black" points="91.83,-189.62 93.41,-179.15 85.65,-186.35 91.83,-189.62"/>
</g>
<!-- d -->
<g id="node4" class="node">
<title>d</title>
<ellipse fill="none" stroke="black" cx="57.95" cy="-90" rx="34.39" ry="18"/>
<text text-anchor="middle" x="57.95" y="-86.3" font-family="Times,serif" font-size="14.00">(1,1,2)</text>
</g>
<!-- c&#45;&gt;d -->
<g id="edge3" class="edge">
<title>c&#45;&gt;d</title>
<path fill="none" stroke="black" d="M91.96,-145.12C86.53,-136.47 79.68,-125.58 73.56,-115.83"/>
<polygon fill="black" stroke="black" points="76.48,-113.91 68.2,-107.31 70.56,-117.64 76.48,-113.91"/>
</g>
<!-- e -->
<g id="node5" class="node">
<title>e</title>
<ellipse fill="none" stroke="black" cx="144.95" cy="-90" rx="34.39" ry="18"/>
<text text-anchor="middle" x="144.95" y="-86.3" font-family="Times,serif" font-size="14.00">(1,1,1)</text>
</g>
<!-- c&#45;&gt;e -->
<g id="edge4" class="edge">
<title>c&#45;&gt;e</title>
<path fill="none" stroke="black" d="M111.7,-145.12C117.02,-136.47 123.71,-125.58 129.69,-115.83"/>
<polygon fill="black" stroke="black" points="132.68,-117.66 134.93,-107.31 126.71,-114 132.68,-117.66"/>
</g>
<!-- f -->
<g id="node6" class="node">
<title>f</title>
<ellipse fill="none" stroke="black" cx="100.95" cy="-18" rx="41.69" ry="18"/>
<text text-anchor="middle" x="100.95" y="-14.3" font-family="Times,serif" font-size="14.00">(1,1,1,2)</text>
</g>
<!-- e&#45;&gt;f -->
<g id="edge5" class="edge">
<title>e&#45;&gt;f</title>
<path fill="none" stroke="black" d="M134.74,-72.76C129.43,-64.32 122.82,-53.8 116.86,-44.31"/>
<polygon fill="black" stroke="black" points="119.69,-42.24 111.4,-35.63 113.76,-45.96 119.69,-42.24"/>
</g>
<!-- g -->
<g id="node7" class="node">
<title>g</title>
<ellipse fill="none" stroke="black" cx="187.95" cy="-18" rx="27" ry="18"/>
<text text-anchor="middle" x="187.95" y="-14.3" font-family="Times,serif" font-size="14.00">...</text>
</g>
<!-- e&#45;&gt;g -->
<g id="edge6" class="edge">
<title>e&#45;&gt;g</title>
<path fill="none" stroke="black" d="M154.92,-72.76C160.19,-64.19 166.76,-53.49 172.65,-43.9"/>
<polygon fill="black" stroke="black" points="175.78,-45.5 178.03,-35.15 169.81,-41.84 175.78,-45.5"/>
</g>
</g>
</svg>
