<?xml version="1.0" encoding="UTF-8" standalone="no"?>
<!DOCTYPE svg PUBLIC "-//W3C//DTD SVG 1.1//EN"
 "http://www.w3.org/Graphics/SVG/1.1/DTD/svg11.dtd">
<!-- Generated by graphviz version 2.50.0 (20211204.2007)
 -->
<!-- Title: t Pages: 1 -->
<svg width="524pt" height="297pt"
 viewBox="0.00 0.00 524.00 297.00" xmlns="http://www.w3.org/2000/svg" xmlns:xlink="http://www.w3.org/1999/xlink">
<g id="graph0" class="graph" transform="scale(1 1) rotate(0) translate(4 293)">
<title>t</title>
<polygon fill="white" stroke="transparent" points="-4,4 -4,-293 520,-293 520,4 -4,4"/>
<!-- t -->
<g id="node1" class="node">
<title>t</title>
<ellipse fill="none" stroke="black" cx="226" cy="-256" rx="81.49" ry="18"/>
<text text-anchor="middle" x="226" y="-252.3" font-family="Times,serif" font-size="14.00">M,v ⊨? ◇ (q ∧ ◇ p)</text>
<text text-anchor="middle" x="123.26" y="-277.8" font-family="Times,serif" font-size="14.00">V&#39;s turn</text>
</g>
<!-- tl -->
<g id="node2" class="node">
<title>tl</title>
<ellipse fill="none" stroke="black" cx="149" cy="-184" rx="67.69" ry="18"/>
<text text-anchor="middle" x="149" y="-180.3" font-family="Times,serif" font-size="14.00">M,y ⊨? q ∧ ◇ p</text>
<text text-anchor="middle" x="60.91" y="-205.8" font-family="Times,serif" font-size="14.00">F&#39;s turn</text>
</g>
<!-- t&#45;&#45;tl -->
<g id="edge1" class="edge">
<title>t&#45;&#45;tl</title>
<path fill="none" stroke="black" d="M207.75,-238.41C195.48,-227.25 179.36,-212.6 167.12,-201.47"/>
</g>
<!-- tr -->
<g id="node6" class="node">
<title>tr</title>
<ellipse fill="none" stroke="black" cx="304" cy="-184" rx="69.59" ry="18"/>
<text text-anchor="middle" x="304" y="-180.3" font-family="Times,serif" font-size="14.00">M, v ⊨? q ∧ ◇ p</text>
<text text-anchor="middle" x="213.96" y="-205.8" font-family="Times,serif" font-size="14.00">F&#39;s turn</text>
</g>
<!-- t&#45;&#45;tr -->
<g id="edge5" class="edge">
<title>t&#45;&#45;tr</title>
<path fill="none" stroke="black" d="M244.48,-238.41C256.92,-227.25 273.24,-212.6 285.65,-201.47"/>
</g>
<!-- tll -->
<g id="node3" class="node">
<title>tll</title>
<path fill="none" stroke="black" d="M12,-83.5C12,-83.5 74,-83.5 74,-83.5 80,-83.5 86,-89.5 86,-95.5 86,-95.5 86,-117.5 86,-117.5 86,-123.5 80,-129.5 74,-129.5 74,-129.5 12,-129.5 12,-129.5 6,-129.5 0,-123.5 0,-117.5 0,-117.5 0,-95.5 0,-95.5 0,-89.5 6,-83.5 12,-83.5"/>
<text text-anchor="middle" x="43" y="-114.3" font-family="Times,serif" font-size="14.00">M,y ⊨ q</text>
<polyline fill="none" stroke="black" points="0,-106.5 86,-106.5 "/>
<text text-anchor="middle" x="43" y="-91.3" font-family="Times,serif" font-size="14.00">Verifier wins</text>
</g>
<!-- tl&#45;&#45;tll -->
<g id="edge2" class="edge">
<title>tl&#45;&#45;tll</title>
<path fill="none" stroke="black" d="M126.52,-166.99C111.21,-156.08 90.73,-141.5 73.89,-129.5"/>
</g>
<!-- tlr -->
<g id="node4" class="node">
<title>tlr</title>
<ellipse fill="none" stroke="black" cx="159" cy="-106.5" rx="55.49" ry="18"/>
<text text-anchor="middle" x="159" y="-102.8" font-family="Times,serif" font-size="14.00">M, y ⊨? ◇ p</text>
<text text-anchor="middle" x="125.25" y="-128.3" font-family="Times,serif" font-size="14.00">V&#39;s turn</text>
</g>
<!-- tl&#45;&#45;tlr -->
<g id="edge3" class="edge">
<title>tl&#45;&#45;tlr</title>
<path fill="none" stroke="black" d="M151.27,-165.87C152.91,-153.51 155.11,-136.9 156.74,-124.56"/>
</g>
<!-- tlrn -->
<g id="node5" class="node">
<title>tlrn</title>
<path fill="none" stroke="black" d="M126,-0.5C126,-0.5 192,-0.5 192,-0.5 198,-0.5 204,-6.5 204,-12.5 204,-12.5 204,-34.5 204,-34.5 204,-40.5 198,-46.5 192,-46.5 192,-46.5 126,-46.5 126,-46.5 120,-46.5 114,-40.5 114,-34.5 114,-34.5 114,-12.5 114,-12.5 114,-6.5 120,-0.5 126,-0.5"/>
<text text-anchor="middle" x="159" y="-31.3" font-family="Times,serif" font-size="14.00">M, z ⊨ p</text>
<polyline fill="none" stroke="black" points="114,-23.5 204,-23.5 "/>
<text text-anchor="middle" x="159" y="-8.3" font-family="Times,serif" font-size="14.00">Verifier wins.</text>
</g>
<!-- tlr&#45;&#45;tlrn -->
<g id="edge4" class="edge">
<title>tlr&#45;&#45;tlrn</title>
<path fill="none" stroke="black" d="M159,-88.32C159,-76.15 159,-59.73 159,-46.59"/>
</g>
<!-- trl -->
<g id="node7" class="node">
<title>trl</title>
<path fill="none" stroke="black" d="M262,-83.5C262,-83.5 328,-83.5 328,-83.5 334,-83.5 340,-89.5 340,-95.5 340,-95.5 340,-117.5 340,-117.5 340,-123.5 334,-129.5 328,-129.5 328,-129.5 262,-129.5 262,-129.5 256,-129.5 250,-123.5 250,-117.5 250,-117.5 250,-95.5 250,-95.5 250,-89.5 256,-83.5 262,-83.5"/>
<text text-anchor="middle" x="295" y="-114.3" font-family="Times,serif" font-size="14.00">M, v ⊭ q</text>
<polyline fill="none" stroke="black" points="250,-106.5 340,-106.5 "/>
<text text-anchor="middle" x="295" y="-91.3" font-family="Times,serif" font-size="14.00">Falsifier wins</text>
<text text-anchor="middle" x="228.5" y="-133.8" font-family="Times,serif" font-size="14.00">V&#39;s turn</text>
</g>
<!-- tr&#45;&#45;trl -->
<g id="edge6" class="edge">
<title>tr&#45;&#45;trl</title>
<path fill="none" stroke="black" d="M301.96,-165.87C300.68,-155.17 299.03,-141.27 297.65,-129.73"/>
</g>
<!-- trr -->
<g id="node8" class="node">
<title>trr</title>
<ellipse fill="none" stroke="black" cx="413" cy="-106.5" rx="55.49" ry="18"/>
<text text-anchor="middle" x="413" y="-102.8" font-family="Times,serif" font-size="14.00">M, v ⊨? ◇ p</text>
<text text-anchor="middle" x="379.25" y="-128.3" font-family="Times,serif" font-size="14.00">V&#39;s turn</text>
</g>
<!-- tr&#45;&#45;trr -->
<g id="edge7" class="edge">
<title>tr&#45;&#45;trr</title>
<path fill="none" stroke="black" d="M327.12,-166.99C345.86,-154 372.13,-135.81 390.66,-122.97"/>
</g>
<!-- trrl -->
<g id="node9" class="node">
<title>trrl</title>
<path fill="none" stroke="black" d="M322,-0.5C322,-0.5 392,-0.5 392,-0.5 398,-0.5 404,-6.5 404,-12.5 404,-12.5 404,-34.5 404,-34.5 404,-40.5 398,-46.5 392,-46.5 392,-46.5 322,-46.5 322,-46.5 316,-46.5 310,-40.5 310,-34.5 310,-34.5 310,-12.5 310,-12.5 310,-6.5 316,-0.5 322,-0.5"/>
<text text-anchor="middle" x="357" y="-31.3" font-family="Times,serif" font-size="14.00">M, v ⊭ p</text>
<polyline fill="none" stroke="black" points="310,-23.5 404,-23.5 "/>
<text text-anchor="middle" x="357" y="-8.3" font-family="Times,serif" font-size="14.00">Falsifier wins.</text>
</g>
<!-- trr&#45;&#45;trrl -->
<g id="edge8" class="edge">
<title>trr&#45;&#45;trrl</title>
<path fill="none" stroke="black" d="M401.4,-88.72C393,-76.58 381.57,-60.05 372.41,-46.8"/>
</g>
<!-- trrr -->
<g id="node10" class="node">
<title>trrr</title>
<path fill="none" stroke="black" d="M434,-0.5C434,-0.5 504,-0.5 504,-0.5 510,-0.5 516,-6.5 516,-12.5 516,-12.5 516,-34.5 516,-34.5 516,-40.5 510,-46.5 504,-46.5 504,-46.5 434,-46.5 434,-46.5 428,-46.5 422,-40.5 422,-34.5 422,-34.5 422,-12.5 422,-12.5 422,-6.5 428,-0.5 434,-0.5"/>
<text text-anchor="middle" x="469" y="-31.3" font-family="Times,serif" font-size="14.00">M, y ⊭ p</text>
<polyline fill="none" stroke="black" points="422,-23.5 516,-23.5 "/>
<text text-anchor="middle" x="469" y="-8.3" font-family="Times,serif" font-size="14.00">Falsifier wins.</text>
</g>
<!-- trr&#45;&#45;trrr -->
<g id="edge9" class="edge">
<title>trr&#45;&#45;trrr</title>
<path fill="none" stroke="black" d="M424.6,-88.72C433,-76.58 444.43,-60.05 453.59,-46.8"/>
</g>
</g>
</svg>
